# xmcd CD database file
#
# Track frame offsets:
#	150
#	19210
#	36247
#	65177
#	83000
#	96957
#	109627
#
# Disc length: 2188 seconds
#
# Revision: 0
# Processed by: cddbd v1.5.1PL0 Copyright (c) Steve Scherf et al.
# Submitted via: CDex 1.51
#
DISCID=57088a07
DTITLE=Sons of Champlin - Welcome To The Dance
DYEAR=1973
DGENRE=Rock
TTITLE0=Lightnin'
TTITLE1=For Joy
TTITLE2=Who - Heaven Only Knows
TTITLE3=Right On
TTITLE4=No Mo'
TTITLE5=Swim
TTITLE6=Welcome To The Dance
EXTD=YEAR: 1973
EXTT0=
EXTT1=
EXTT2=
EXTT3=
EXTT4=
EXTT5=
EXTT6=
PLAYORDER=
